<?xml version="1.0" encoding="utf-8"?>
<!-- Generated by IcoMoon.io -->
<!DOCTYPE svg PUBLIC "-//W3C//DTD SVG 1.1//EN" "http://www.w3.org/Graphics/SVG/1.1/DTD/svg11.dtd">
<svg version="1.1" xmlns="http://www.w3.org/2000/svg" xmlns:xlink="http://www.w3.org/1999/xlink" width="25" height="25" viewBox="0 0 25 25">
	<path d="M12.5 0c-6.904 0-12.5 5.596-12.5 12.5s5.596 12.5 12.5 12.5 12.5-5.596 12.5-12.5-5.596-12.5-12.5-12.5zM12.5 22.656c-5.609 0-10.156-4.547-10.156-10.156s4.547-10.156 10.156-10.156 10.156 4.547 10.156 10.156-4.547 10.156-10.156 10.156zM19.855 11.395l-6.25-6.25c-0.61-0.61-1.599-0.61-2.21 0s-0.61 1.6 0 2.21l3.583 3.583h-8.728c-0.863 0-1.563 0.7-1.563 1.563s0.7 1.563 1.563 1.563h8.728l-3.583 3.583c-0.61 0.61-0.61 1.6 0 2.21 0.305 0.305 0.705 0.458 1.105 0.458s0.8-0.153 1.105-0.458l6.25-6.25c0.61-0.61 0.61-1.6 0-2.21z" />
</svg>
