<?xml version="1.0" encoding="utf-8"?>
<!-- Generated by IcoMoon.io -->
<!DOCTYPE svg PUBLIC "-//W3C//DTD SVG 1.1//EN" "http://www.w3.org/Graphics/SVG/1.1/DTD/svg11.dtd">
<svg version="1.1" xmlns="http://www.w3.org/2000/svg" xmlns:xlink="http://www.w3.org/1999/xlink" width="25" height="25" viewBox="0 0 25 25">
	<path d="M25 12.5c0-6.904-5.596-12.5-12.5-12.5s-12.5 5.596-12.5 12.5 5.596 12.5 12.5 12.5 12.5-5.596 12.5-12.5zM2.344 12.5c0-5.609 4.547-10.156 10.156-10.156s10.156 4.547 10.156 10.156-4.547 10.156-10.156 10.156-10.156-4.547-10.156-10.156zM13.605 19.855l6.25-6.25c0.61-0.61 0.61-1.599 0-2.21s-1.6-0.61-2.21 0l-3.583 3.583v-8.728c0-0.863-0.7-1.563-1.563-1.563s-1.563 0.7-1.563 1.563v8.728l-3.583-3.583c-0.61-0.61-1.6-0.61-2.21 0-0.305 0.305-0.458 0.705-0.458 1.105s0.153 0.8 0.458 1.105l6.25 6.25c0.61 0.61 1.6 0.61 2.21 0z" />
</svg>
