<?xml version="1.0" encoding="utf-8"?>
<!-- Generated by IcoMoon.io -->
<!DOCTYPE svg PUBLIC "-//W3C//DTD SVG 1.1//EN" "http://www.w3.org/Graphics/SVG/1.1/DTD/svg11.dtd">
<svg version="1.1" xmlns="http://www.w3.org/2000/svg" xmlns:xlink="http://www.w3.org/1999/xlink" width="90" height="90" viewBox="0 0 90 90">
	<path d="M78.969 0l5.91 50.235-6.634 0.78-5.278-44.863h-55.935l-5.278 44.863-6.634-0.78 5.91-50.235zM22.5 11.25h45v5.625h-45zM22.5 22.5h45v5.625h-45zM22.5 33.75h45v5.625h-45zM22.5 45h45v5.625h-45zM87.188 56.25h-84.375c-1.547 0-2.412 1.201-1.923 2.668l9.471 28.414c0.489 1.468 2.155 2.668 3.702 2.668h61.875c1.547 0 3.213-1.201 3.702-2.668l9.471-28.414c0.489-1.467-0.376-2.668-1.923-2.668zM56.25 67.5h-22.5v-5.625h22.5v5.625z" fill="#1693a7" />
</svg>
